<svg width="31" height="22" viewBox="0 0 31 22" fill="none" xmlns="http://www.w3.org/2000/svg">
<path fill-rule="evenodd" clip-rule="evenodd" d="M0.895159 1.21205C0.0164795 2.09073 0.0164795 3.50495 0.0164795 6.33337V7.20219C0.0164795 7.32402 0.0164795 7.38493 0.0217824 7.43622C0.0704731 7.90714 0.442716 8.27938 0.913632 8.32807C0.964919 8.33337 1.02583 8.33337 1.14766 8.33337H1.87454C3.3473 8.33337 4.54121 9.52728 4.54121 11C4.54121 12.4728 3.3473 13.6667 1.87454 13.6667H1.14766C1.02583 13.6667 0.964919 13.6667 0.913632 13.672C0.442716 13.7207 0.0704731 14.0929 0.0217824 14.5639C0.0164795 14.6151 0.0164795 14.6761 0.0164795 14.7979V15.6667C0.0164795 18.4951 0.0164795 19.9093 0.895159 20.788C1.77384 21.6667 3.18805 21.6667 6.01648 21.6667H24.1813C27.0097 21.6667 28.424 21.6667 29.3026 20.788C30.1813 19.9093 30.1813 18.4951 30.1813 15.6667V14.7979C30.1813 14.6761 30.1813 14.6151 30.176 14.5639C30.1273 14.0929 29.7551 13.7207 29.2842 13.672C29.2329 13.6667 29.172 13.6667 29.0501 13.6667H28.3233C26.8505 13.6667 25.6566 12.4728 25.6566 11C25.6566 9.52728 26.8505 8.33337 28.3233 8.33337H29.0501C29.172 8.33337 29.2329 8.33337 29.2842 8.32807C29.7551 8.27938 30.1273 7.90714 30.176 7.43622C30.1813 7.38493 30.1813 7.32402 30.1813 7.20219V6.33337C30.1813 3.50495 30.1813 2.09073 29.3026 1.21205C28.424 0.333374 27.0097 0.333374 24.1813 0.333374H6.01648C3.18805 0.333374 1.77384 0.333374 0.895159 1.21205L0.895159 1.21205ZM15.0167 8.3413C14.8108 8.38149 14.684 8.67147 14.4304 9.25144C14.2862 9.58126 14.2141 9.74616 14.0792 9.85833C14.0413 9.88979 14.0002 9.91781 13.9565 9.94199C13.8006 10.0282 13.6059 10.0442 13.2166 10.0762C12.5575 10.1303 12.228 10.1574 12.1274 10.3298C12.1065 10.3655 12.0924 10.4041 12.0855 10.4441C12.0521 10.6373 12.2943 10.8395 12.7788 11.2439L12.9134 11.3562L12.9134 11.3562C13.1399 11.5452 13.2532 11.6398 13.3187 11.7577C13.358 11.8285 13.3843 11.9047 13.3967 11.9833C13.4172 12.1144 13.3841 12.2515 13.3177 12.5258L13.294 12.6238C13.1751 13.1156 13.1156 13.3616 13.1899 13.4825C13.2566 13.591 13.3794 13.6606 13.5151 13.6665C13.6662 13.6731 13.879 13.514 14.3048 13.1957L14.3048 13.1957C14.5853 12.9861 14.7255 12.8812 14.8812 12.8403C15.0235 12.8028 15.1743 12.8028 15.3166 12.8403C15.4723 12.8812 15.6125 12.9861 15.893 13.1957L15.8931 13.1958C16.3188 13.514 16.5316 13.6731 16.6827 13.6665C16.8184 13.6606 16.9412 13.591 17.0079 13.4825C17.0822 13.3616 17.0227 13.1156 16.9038 12.6238L16.8801 12.5258L16.88 12.5258C16.8137 12.2515 16.7806 12.1144 16.8011 11.9833C16.8135 11.9047 16.8398 11.8285 16.8791 11.7577C16.9446 11.6398 17.0579 11.5452 17.2844 11.3562L17.419 11.2439C17.9035 10.8395 18.1457 10.6373 18.1123 10.4441C18.1054 10.4041 18.0913 10.3655 18.0704 10.3298C17.9698 10.1574 17.6403 10.1303 16.9812 10.0762C16.5919 10.0442 16.3972 10.0282 16.2413 9.94199C16.1976 9.91781 16.1565 9.88979 16.1186 9.85833C15.9837 9.74616 15.9116 9.58126 15.7674 9.25144C15.5138 8.67147 15.387 8.38149 15.1811 8.3413C15.1269 8.33073 15.0709 8.33073 15.0167 8.3413Z" fill="#49A865"/>
</svg>
