<svg width="31" height="32" viewBox="0 0 31 32" fill="none" xmlns="http://www.w3.org/2000/svg">
<path d="M25.8333 6.33333C26.3856 6.33333 26.8333 5.88562 26.8333 5.33333C26.8333 4.78105 26.3856 4.33333 25.8333 4.33333V6.33333ZM7.20832 6.33333L25.8333 6.33333V4.33333L7.20832 4.33333V6.33333ZM7.20832 13L17.4375 13V11L7.20832 11V13ZM4.87499 8.66667C4.87499 7.378 5.91966 6.33333 7.20832 6.33333V4.33333C4.81509 4.33333 2.87499 6.27343 2.87499 8.66667H4.87499ZM2.87499 8.66667C2.87499 11.0599 4.81509 13 7.20832 13V11C5.91966 11 4.87499 9.95533 4.87499 8.66667H2.87499Z" fill="#49A865"/>
<path d="M3.875 16L3.875 8.66667" stroke="#49A865" stroke-width="2"/>
<path d="M27.1857 28.0607C27.4405 27.8058 27.5399 27.4917 27.5839 27.1639C27.625 26.8581 27.625 26.4762 27.625 26.0329C27.625 26.022 27.625 26.011 27.625 26V24V23.5H27.125H23.375C21.442 23.5 19.875 21.933 19.875 20C19.875 18.067 21.442 16.5 23.375 16.5H27.125H27.625L27.625 16V14L27.625 13.9671C27.625 13.5238 27.625 13.1419 27.5839 12.8361C27.5399 12.5083 27.4405 12.1942 27.1857 11.9393C26.9308 11.6845 26.6167 11.5851 26.2889 11.5411C25.9831 11.5 25.6012 11.5 25.1579 11.5H25.125L3.875 11.5H3.375L3.81434 28.0607C4.06917 28.3155 4.38335 28.4149 4.71111 28.4589C5.01693 28.5 5.39884 28.5 5.84208 28.5L5.875 28.5L25.125 28.5C25.136 28.5 25.147 28.5 25.1579 28.5C25.6012 28.5 25.9831 28.5 26.2889 28.4589C26.6167 28.4149 26.9308 28.3155 27.1857 28.0607ZM27.1857 28.0607L26.8321 27.7071M27.1857 28.0607L26.8321 27.7071M26.8321 27.7071C27.125 27.4142 27.125 26.9428 27.125 26V24.5L26.8321 27.7071Z" fill="#49A865" stroke="#49A865"/>
</svg>
